<svg width="112mm" height="40mm" viewBox="0 0 112 40" version="1.1" id="svg12790" xmlns:xlink="http://www.w3.org/1999/xlink" xmlns="http://www.w3.org/2000/svg"><defs id="defs12787"><path id="rect2495" d="M911.963 221.285h167.94v113.903h-167.94z"/><path id="rect2495-1" d="M911.963 221.285h205.192v75.103H911.963z"/><path id="rect2495-1-07" d="M911.963 221.285h205.192v75.103H911.963z"/><radialGradient xlink:href="#linearGradient6720" id="radialGradient6722" cx="72.2" cy="20.026" fx="72.2" fy="20.026" r="6.633" gradientTransform="matrix(1 0 0 1.88858 0 -18.853)" gradientUnits="userSpaceOnUse"/><linearGradient id="linearGradient6720"><stop style="stop-color:#000;stop-opacity:1" offset="0" id="stop6716"/><stop style="stop-color:#000;stop-opacity:0" offset="1" id="stop6718"/></linearGradient></defs><g id="layer1"><path style="opacity:.91;fill:none;fill-opacity:.557851;stroke:none;stroke-width:.756787px;stroke-linecap:round;stroke-linejoin:round;stroke-dasharray:none;stroke-opacity:1" id="rect2897" d="M0 0h112v40H0z"/><path style="fill:#89be2e;fill-opacity:1;stroke:url(#radialGradient6722);stroke-width:0;stroke-dasharray:none;stroke-opacity:1" d="M72.015 31.358c-.171-.18-.355-.673-.569-1.525-.362-1.441-.51-2.614-.52-4.133l-.008-1.158-.438-.169c-.779-.301-1.3-.583-1.637-.885-.531-.476-.521-.86.034-1.34.293-.253 1.145-.69 1.744-.892l.328-.111V17.622l-.454-.168c-1.3-.482-2.049-1.04-2.049-1.528 0-.227.2-.538.489-.762.278-.215 1.085-.617 1.623-.808l.391-.14V8.952h-5.074l-.154-.15c-.15-.148-.153-.175-.153-1.106 0-1.068.032-1.157.45-1.23.114-.02 2.971-.029 6.35-.02l6.142.018.162.15c.16.147.161.157.161 1.092 0 .92-.003.948-.153 1.095l-.154.151h-5.074v1.823l.266.077c.146.042.551.211.9.375 1.049.494 1.502 1.042 1.253 1.515-.218.413-.827.805-1.887 1.215l-.5.194v3.535l.375.139c1.01.373 1.798.874 2.012 1.28.294.558-.429 1.246-1.861 1.772l-.558.205.015 1.77.016 1.77.532.197c.964.356 1.64.81 1.876 1.26.124.237.025.528-.28.828-.29.284-1.105.73-1.76.96l-.384.136-.075.47c-.098.61-.398 1.847-.56 2.3-.243.684-.529.89-.817.586z" id="path989"/><text xml:space="preserve" transform="matrix(.26458 0 0 .27293 -231.146 -52.777)" id="text2493" style="white-space:pre;shape-inside:url(#rect2495);shape-padding:0;fill:#283260;fill-opacity:1;stroke:none;stroke-width:1.00157px;stroke-dasharray:none;font-size:75.5906px;display:inline"><tspan x="911.963" y="290.249" id="tspan20777"><tspan style="-inkscape-font-specification:&quot;sans-serif Bold&quot;;font-weight:700" id="tspan20775">MY</tspan></tspan></text><text xml:space="preserve" transform="matrix(.26458 0 0 .26202 -197.793 -44.566)" id="text2493-4" style="white-space:pre;shape-inside:url(#rect2495-1);fill:#283260;fill-opacity:1;font-size:38.1732px;display:inline"><tspan x="911.963" y="256.112" id="tspan20781"><tspan style="-inkscape-font-specification:&quot;sans-serif Bold&quot;;font-size:37.7953px;font-weight:700" id="tspan20779">GEO</tspan></tspan></text><text xml:space="preserve" transform="matrix(.26458 0 0 .2627 -162.818 -44.64)" id="text2493-4-2" style="white-space:pre;shape-inside:url(#rect2495-1-07);fill:#283260;fill-opacity:1;font-size:37.7953px;display:inline"><tspan x="911.963" y="255.767" id="tspan20785"><tspan style="-inkscape-font-specification:&quot;sans-serif Bold&quot;;font-weight:700" id="tspan20783">ECH</tspan></tspan></text><path style="opacity:.91;fill:#fd8a00;fill-opacity:1;stroke:none;stroke-width:0;stroke-linecap:round;stroke-linejoin:round;stroke-dasharray:none;stroke-opacity:1" d="M71.447 34.449c-.564-.227-.794-.527-1.556-2.027-.796-1.566-1.04-1.929-1.499-2.229-.457-.3-1.777-.69-4.17-1.236-1.645-.375-6.534-1.63-6.641-1.703-.014-.01.099-.29.25-.622l.276-.604 1.94.529c1.067.29 3.026.78 4.354 1.086 3.518.814 4.556 1.158 5.308 1.76.529.423.872.939 1.707 2.565.619 1.204.692 1.312.895 1.312.194 0 .259-.074.527-.603.881-1.733 1.213-2.322 1.54-2.732.798-1.003 1.634-1.333 5.847-2.304a140.55 140.55 0 0 0 4.354-1.085l1.94-.528.275.604c.152.332.264.611.25.62-.125.08-4.373 1.177-5.88 1.52-4.382.998-5.07 1.257-5.622 2.117-.093.145-.461.838-.818 1.54-.72 1.417-.918 1.693-1.394 1.949-.464.249-1.358.282-1.883.07z" id="path11717"/></g></svg>